<?xml version="1.0" standalone="no"?>
<!DOCTYPE svg PUBLIC "-//W3C//DTD SVG 20010904//EN"
 "http://www.w3.org/TR/2001/REC-SVG-20010904/DTD/svg10.dtd">
<svg version="1.0" xmlns="http://www.w3.org/2000/svg"
 width="500.000000pt" height="500.000000pt" viewBox="0 0 500.000000 500.000000"
 preserveAspectRatio="xMidYMid meet">

<g transform="translate(0.000000,500.000000) scale(0.100000,-0.100000)"
fill="#000000" stroke="none">
<path d="M1655 4375 c-271 -48 -494 -164 -691 -360 -195 -194 -328 -437 -402
-732 -46 -180 -55 -285 -49 -526 5 -227 28 -384 82 -571 163 -561 549 -1107
994 -1406 179 -120 304 -170 423 -170 123 0 165 43 154 159 -18 200 -19 227
-2 259 54 104 246 85 544 -54 232 -108 432 -168 597 -179 126 -8 216 6 309 49
166 77 202 190 131 416 -66 210 -41 298 105 364 77 35 159 46 350 46 91 0 183
5 205 11 135 37 104 155 -63 242 -113 60 -273 95 -532 117 -164 14 -257 28
-349 52 -234 61 -407 223 -468 438 -16 58 -18 108 -18 485 0 455 -1 466 -61
643 -118 353 -398 612 -759 704 -106 26 -382 34 -500 13z m-458 -986 c106 -51
171 -207 143 -342 -34 -165 -184 -267 -314 -213 -50 21 -104 74 -134 130 -24
46 -27 61 -27 156 0 113 11 149 70 218 59 70 175 93 262 51z m967 -153 c132
-77 188 -258 124 -397 -72 -158 -252 -223 -398 -143 -209 114 -207 437 3 546
82 42 194 39 271 -6z"/>
</g>
</svg>
