<?xml version="1.0" standalone="no"?>
<!DOCTYPE svg PUBLIC "-//W3C//DTD SVG 20010904//EN"
 "http://www.w3.org/TR/2001/REC-SVG-20010904/DTD/svg10.dtd">
<svg version="1.0" xmlns="http://www.w3.org/2000/svg"
 width="500.000000pt" height="500.000000pt" viewBox="0 0 500.000000 500.000000"
 preserveAspectRatio="xMidYMid meet">

<g transform="translate(0.000000,500.000000) scale(0.100000,-0.100000)"
fill="#000000" stroke="none">
<path d="M1635 4394 c-566 -100 -987 -547 -1120 -1190 -36 -174 -42 -455 -14
-678 61 -493 313 -1018 681 -1419 327 -357 722 -575 907 -501 71 28 89 83 66
202 -27 141 -18 204 36 244 84 63 235 34 544 -102 284 -126 445 -169 632 -170
103 0 134 4 200 25 216 69 270 198 189 453 -51 160 -48 232 12 295 79 83 183
111 412 109 227 -3 308 16 330 74 28 73 -94 181 -262 231 -92 27 -249 52 -421
68 -198 18 -263 28 -366 56 -231 62 -406 230 -468 449 -16 59 -18 101 -15 450
3 312 0 403 -12 482 -79 486 -412 832 -891 923 -100 19 -330 18 -440 -1z
m-490 -975 c59 -16 136 -99 164 -174 45 -120 17 -268 -66 -351 -51 -51 -90
-68 -158 -69 -48 0 -69 6 -107 28 -97 57 -143 147 -143 282 1 98 26 162 88
223 65 64 138 84 222 61z m992 -161 c63 -30 136 -114 158 -183 23 -75 17 -182
-14 -243 -30 -58 -93 -120 -150 -145 -66 -30 -170 -29 -231 2 -177 91 -235
312 -123 474 77 111 236 153 360 95z"/>
</g>
</svg>
